<?xml version="1.0" encoding="utf-8"?>
<!-- Svg Vector Icons : http://www.onlinewebfonts.com/icon -->
<!DOCTYPE svg PUBLIC "-//W3C//DTD SVG 1.1//EN" "http://www.w3.org/Graphics/SVG/1.1/DTD/svg11.dtd">
<svg version="1.1" xmlns="http://www.w3.org/2000/svg" xmlns:xlink="http://www.w3.org/1999/xlink" x="0px" y="0px" viewBox="0 0 1000 1000" enable-background="new 0 0 1000 1000" xml:space="preserve">
<metadata> Svg Vector Icons : http://www.onlinewebfonts.com/icon </metadata>
<g><g transform="translate(0.000000,511.000000) scale(0.100000,-0.100000)"><path d="M4716.4,4982.9c-111.9-48.2-140.8-123.5-140.8-370.5v-218l-52.1-9.6c-231.5-50.2-536.4-169.8-742.9-293.3l-90.7-54l-150.5,148.6c-248.9,241.2-329.9,237.3-590.4-19.3c-167.9-164-206.5-223.8-206.5-312.6c0-86.8,25.1-127.3,183.3-289.4l140.8-144.7l-94.5-164c-106.1-183.3-191-391.7-241.2-584.6l-30.9-129.3h-202.6c-351.2,0-397.5-44.4-407.1-407.1c-11.6-401.3,38.6-461.1,391.7-461.1h214.2l34.7-148.6c42.5-183.3,142.8-432.2,247-609.7l77.2-133.1l-146.6-148.6c-241.2-243.1-237.3-322.2,34.7-592.4c260.5-260.5,329.9-264.4,578.9-27L3678.3,163l57.9-36.7c133.1-86.8,457.3-229.6,632.9-279.8l187.2-52.1v-200.7c0-349.3,46.3-395.6,407.1-405.2c403.3-11.6,461.2,36.7,461.2,395.6v216.1l111.9,21.2c156.3,32.8,476.6,160.1,627.1,250.8c69.5,42.5,133.1,77.2,142.8,77.2c7.7,0,81-65.6,162.1-146.6c239.3-237.4,330-231.6,598.1,46.3c250.8,256.6,252.8,326.1,15.5,573.1l-152.5,158.2l86.8,152.4c102.3,179.4,194.9,409.1,237.3,592.4l30.9,129.3h210.3c353.1,0,405.2,50.2,414.8,405.2c7.7,254.7-15.4,351.2-98.4,412.9c-46.3,34.7-90.7,42.5-287.5,50.2l-233.5,9.6l-44.4,169.8c-54,198.7-156.3,443.8-248.9,592.4l-65.6,106.1l140.9,144.7c164,167.9,185.2,200.7,185.2,304.9c0,88.8-56,173.7-223.8,333.8c-148.6,142.8-196.8,171.7-274,171.7c-90.7,0-129.3-25.1-295.2-187.2L6317.9,4024l-152.4,88.8c-181.4,104.2-409.1,196.8-590.4,241.2l-131.2,30.9v208.4c0,362.8-59.8,418.7-443.8,416.8C4853.4,5010,4756.9,5002.2,4716.4,4982.9z M5243.1,3342.9c501.7-96.5,901.1-497.8,1003.3-1011.1c54-272.1,19.3-515.2-113.8-793c-61.7-133.1-106.1-194.9-233.5-320.3c-268.2-266.3-538.3-382-899.2-382c-357,0-632.9,115.8-889.5,372.4c-260.5,262.4-374.3,536.4-372.4,899.2c1.9,171.7,11.6,241.2,52.1,366.6c111.9,345.4,335.7,603.9,659.9,762.2C4708.6,3364.1,4959.5,3396.9,5243.1,3342.9z"/><path d="M4803.2,2727.3c-194.9-69.5-314.5-177.5-399.4-358.9c-42.5-88.8-50.2-133.1-50.2-270.1c0-196.8,54-333.8,183.3-463.1c129.3-129.3,266.3-183.3,463.1-183.3c137,0,181.4,7.7,272.1,50.2c198.7,94.6,347.3,291.4,376.3,503.6l11.6,86.8l-90.7,11.6c-274,38.6-526.8,287.5-561.5,557.6c-11.6,88.8-15.4,92.6-73.3,92.6C4901.6,2752.4,4843.7,2740.8,4803.2,2727.3z"/><path d="M3321.3-925.2c-233.5-140.8-966.7-492-1341-642.5c-191-75.3-399.4-167.9-463.1-202.6c-349.2-192.9-565.3-488.2-675.3-926.2c-83-324.2-106.1-600.1-119.6-1373.8L710.7-4790H5000h4289.3l-11.6,719.7c-13.5,773.7-36.7,1049.6-119.6,1373.8c-111.9,439.9-324.2,731.3-675.3,926.2c-63.7,34.7-272.1,127.3-463.1,202.6c-393.6,158.2-1034.2,463.1-1312.1,627.1c-104.2,59.8-194.9,102.3-202.6,92.6c-7.7-7.7-200.7-609.7-430.3-1337.1c-229.6-727.4-434.1-1369.9-455.4-1427.8c-34.8-100.3-36.7-104.2-54-57.9c-56,142.8-333.8,939.7-333.8,957c0,11.6,54,111.9,121.6,223.8c156.3,260.5,214.2,430.3,202.6,609.7c-9.6,169.8-67.5,254.7-225.7,330c-96.5,44.4-131.2,50.2-330,50.2c-191,0-235.4-5.8-318.4-44.4c-179.4-83-245-181.4-243.1-370.5c0-154.4,67.5-343.4,208.4-576.9c67.5-110,121.6-210.3,121.6-221.9c0-28.9-331.9-964.7-347.3-982.1c-9.6-9.6-28.9,28.9-46.3,86.8c-148.6,497.8-877.9,2765-891.4,2766.9C3473.8-838.4,3400.4-877,3321.3-925.2z"/></g></g>
</svg>